<?xml version="1.0" encoding="utf-8"?>
<!-- Generator: Adobe Illustrator 17.1.0, SVG Export Plug-In . SVG Version: 6.00 Build 0)  -->
<!DOCTYPE svg PUBLIC "-//W3C//DTD SVG 1.1//EN" "http://www.w3.org/Graphics/SVG/1.1/DTD/svg11.dtd">
<svg version="1.1" id="Layer_1" xmlns="http://www.w3.org/2000/svg" xmlns:xlink="http://www.w3.org/1999/xlink" x="0px" y="0px"
	 viewBox="0 0 256 256" style="enable-background:new 0 0 256 256;" xml:space="preserve">
<style type="text/css">
	.st0{fill:#666666;}
</style>
<g>
	<path class="st0" d="M207.26,117.83c1.76-7.46,2.31-15.89,2.31-25.2c0-14.72-5.53-26.5-14.51-35.47
		c1.57-5.07,3.67-16.32-2.09-30.72c0,0-10.16-3.23-33.14,12.16c-9-2.25-18.58-3.36-28.18-3.36c-10.56,0-21.23,1.34-31.17,4.07
		C76.75,23.13,66.28,26.45,66.28,26.45c-6.83,17.09-2.61,29.74-1.32,32.89C56.92,68,52.02,79.07,52.02,92.64
		c0,9.51,1,18.11,3.43,25.68c0.19,0.59,4,9.28,4.21,9.66c0.49,0.86,1.02,1.7,1.56,2.53c8.56,12.84,23.96,21.16,49.68,23.93
		c-3.99,2.68-8.05,7.23-9.7,14.93c-5.43,2.6-22.62,8.94-32.94-8.8c0,0-5.77-10.56-16.83-11.38c0,0-10.72-0.16-0.74,6.68
		c0,0,7.46,3.38,12.41,16.08c0,0,5.9,21.67,37.9,14.72v22.38c0,0-0.94,7.92-8.2,10.55c0,0-4.91,2.97-0.29,4.62
		c0,0,19.49,1.65,19.49-14.84v-24.41c0,0,0-9.68,6-13.04v40.09c0,0-0.87,9.56-5.82,13.19c0,0-3.57,5.94,3.69,4.29
		c0,0,13.72-1.87,14.38-18.03l0.18-40.46h3.33l0.32,40.46c0.66,16.16,14.51,18.08,14.51,18.08c7.26,1.65,3.82-4.32,3.82-4.32
		c-4.95-3.63-5.41-13.22-5.41-13.22v-39.74c6,3.7,5,12.7,5,12.7v24.41c0,16.49,19.73,14.84,19.73,14.84
		c4.62-1.65,0.26-4.62,0.26-4.62c-7.26-2.64-7.99-10.55-7.99-10.55v-31.99c0-12.48-5.37-19.08-10.51-22.57
		c28.7-2.85,43.04-11.85,50.01-25.82C203.8,128.05,207.08,118.6,207.26,117.83z M131.39,148.91c-32.65,0-59.11-4.92-59.11-36.46
		c0-7.55,3.72-14.57,10.09-20.39c10.63-9.7,28.61-4.56,49.01-4.56c20.31,0,38.24-5.19,48.88,4.44l0,0
		c6.45,5.84,10.22,12.9,10.22,20.5C190.5,147.94,164.03,148.91,131.39,148.91z"/>
	<path class="st0" d="M99.44,96.55c-6.79,0-12.3,7.92-12.3,17.7c0,9.78,5.51,17.7,12.3,17.7s12.3-7.93,12.3-17.7
		C111.73,104.47,106.23,96.56,99.44,96.55z"/>
	<path class="st0" d="M165.42,96.55c-6.79,0-12.3,7.92-12.3,17.7c0,9.78,5.51,17.7,12.3,17.7c6.79,0,12.3-7.93,12.3-17.7
		C177.72,104.47,172.21,96.56,165.42,96.55z"/>
</g>
<g>
</g>
<g>
</g>
<g>
</g>
<g>
</g>
<g>
</g>
<g>
</g>
<g>
</g>
<g>
</g>
<g>
</g>
<g>
</g>
<g>
</g>
<g>
</g>
<g>
</g>
<g>
</g>
<g>
</g>
</svg>
