<svg xmlns="http://www.w3.org/2000/svg" viewBox="0 0 256 256"><style>.st0{fill:#666666;}</style><path class="st0" d="M207.26 117.83c1.76-7.46 2.31-15.89 2.31-25.2 0-14.72-5.53-26.5-14.51-35.47 1.57-5.07 3.67-16.32-2.09-30.72 0 0-10.16-3.23-33.14 12.16-9-2.25-18.58-3.36-28.18-3.36-10.56 0-21.23 1.34-31.17 4.07-23.73-16.18-34.2-12.86-34.2-12.86-6.83 17.09-2.61 29.74-1.32 32.89-8.04 8.66-12.94 19.73-12.94 33.3 0 9.51 1 18.11 3.43 25.68.19.59 4 9.28 4.21 9.66.49.86 1.02 1.7 1.56 2.53 8.56 12.84 23.96 21.16 49.68 23.93-3.99 2.68-8.05 7.23-9.7 14.93-5.43 2.6-22.62 8.94-32.94-8.8 0 0-5.77-10.56-16.83-11.38 0 0-10.72-.16-.74 6.68 0 0 7.46 3.38 12.41 16.08 0 0 5.9 21.67 37.9 14.72v22.38s-.94 7.92-8.2 10.55c0 0-4.91 2.97-.29 4.62 0 0 19.49 1.65 19.49-14.84v-24.41s0-9.68 6-13.04v40.09s-.87 9.56-5.82 13.19c0 0-3.57 5.94 3.69 4.29 0 0 13.72-1.87 14.38-18.03l.18-40.46h3.33l.32 40.46c.66 16.16 14.51 18.08 14.51 18.08 7.26 1.65 3.82-4.32 3.82-4.32-4.95-3.63-5.41-13.22-5.41-13.22v-39.74c6 3.7 5 12.7 5 12.7v24.41c0 16.49 19.73 14.84 19.73 14.84 4.62-1.65.26-4.62.26-4.62-7.26-2.64-7.99-10.55-7.99-10.55v-31.99c0-12.48-5.37-19.08-10.51-22.57 28.7-2.85 43.04-11.85 50.01-25.82.3-.62 3.58-10.07 3.76-10.84zm-75.87 31.08c-32.65 0-59.11-4.92-59.11-36.46 0-7.55 3.72-14.57 10.09-20.39 10.63-9.7 28.61-4.56 49.01-4.56 20.31 0 38.24-5.19 48.88 4.44 6.45 5.84 10.22 12.9 10.22 20.5.02 35.5-26.45 36.47-59.09 36.47zM99.44 96.55c-6.79 0-12.3 7.92-12.3 17.7s5.51 17.7 12.3 17.7 12.3-7.93 12.3-17.7c-.01-9.78-5.51-17.69-12.3-17.7zm65.98 0c-6.79 0-12.3 7.92-12.3 17.7s5.51 17.7 12.3 17.7c6.79 0 12.3-7.93 12.3-17.7 0-9.78-5.51-17.69-12.3-17.7z"/></svg>