<svg xmlns="http://www.w3.org/2000/svg" viewBox="0 0 256 256" enable-background="new 0 0 256 256"><style type="text/css">.st0{fill:#666666;}</style><path class="st0" d="M178.2 180.53l-17.79-29.34c3.3-11.32 5.88-24.04 5.88-36.45 0-1.64-.04-3.27-.14-4.89-1.83-32.76-14.48-44.5-23.93-53.94-4.48-4.48-7.91-8.35-10.33-13.79l-.12-.28c1.63-.25 2.98-.68 4-1.33 1.73-1.11 2.64-2.82 2.64-4.97l-.51-1.18c-.78-.78-3.04-1.24-6.69-1.4-.33-1.92-.25-3.79.06-6.32.14-1.13.14-1.13 1.75-1.32l.32-.04c1.17-.14 1.7-.75 1.94-1.23.64-1.27-.2-2.73-.7-3.61l-.15-.27-.22-.56c-2.55-6.28-3.84-10.69-3.84-13.13 0-3.15-.76-3.95-1.33-4.28-.5-.29-1.09-.29-1.59 0-.33.19-1.36.78-1.36 4.28 0 1.62-.68 5.23-3.89 13.25l-.16.41-.17.29c-.37.65-.93 1.62-.93 2.6 0 .34.07.68.23 1 .24.48.77 1.09 1.94 1.23l.32.04c1.61.19 1.61.19 1.75 1.32.18 1.46.3 2.7.3 3.85 0 .85-.07 1.65-.21 2.47-3.66.16-5.94.62-6.72 1.4l-.5 1.18c0 2.15.91 3.87 2.64 4.97 1.02.65 2.36 1.08 3.99 1.33l-.13.29c-2.37 5.52-6.28 9.43-10.81 13.95-9.43 9.42-22.06 21.15-23.88 53.76-.09 1.62-.13 3.25-.13 4.89 0 12.41 2.59 25.14 5.88 36.45l-17.81 29.37-10.78 62.47h12.17l11.36-39.68 19.09-16 .01.03.69.28c.64.26 1.35.48 2.1.68.33 1.98.7 4.06.95 5.34.18 1 .65 3.41 9.59 4.02v45.33h10.02v-45.3c9.4-.56 9.85-3.03 10.03-4.01.26-1.3.62-3.4.96-5.38.74-.21 1.46-.43 2.09-.68l.41-.18 18.94 15.87 11.39 39.68h12.17l-10.79-62.47z"/></svg>