<?xml version="1.0" encoding="utf-8"?>
<!-- Generator: Adobe Illustrator 17.1.0, SVG Export Plug-In . SVG Version: 6.00 Build 0)  -->
<!DOCTYPE svg PUBLIC "-//W3C//DTD SVG 1.1//EN" "http://www.w3.org/Graphics/SVG/1.1/DTD/svg11.dtd">
<svg version="1.1" id="Layer_1" xmlns="http://www.w3.org/2000/svg" xmlns:xlink="http://www.w3.org/1999/xlink" x="0px" y="0px"
	 viewBox="0 0 256 256" style="enable-background:new 0 0 256 256;" xml:space="preserve">
<style type="text/css">
	.st0{fill:#666666;}
</style>
<path class="st0" d="M178.2,180.53l-17.79-29.34c3.3-11.32,5.88-24.04,5.88-36.45c0-1.64-0.04-3.27-0.14-4.89
	c-1.83-32.76-14.48-44.5-23.93-53.94c-4.48-4.48-7.91-8.35-10.33-13.79c-0.04-0.09-0.08-0.18-0.12-0.28c1.63-0.25,2.98-0.68,4-1.33
	c1.73-1.11,2.64-2.82,2.64-4.97l-0.51-1.18c-0.78-0.78-3.04-1.24-6.69-1.4c-0.33-1.92-0.25-3.79,0.06-6.32
	c0.14-1.13,0.14-1.13,1.75-1.32l0.32-0.04c1.17-0.14,1.7-0.75,1.94-1.23c0.64-1.27-0.2-2.73-0.7-3.61c0,0-0.17-0.29-0.15-0.27
	l-0.22-0.56c-2.55-6.28-3.84-10.69-3.84-13.13c0-3.15-0.76-3.95-1.33-4.28c-0.5-0.29-1.09-0.29-1.59,0
	c-0.33,0.19-1.36,0.78-1.36,4.28c0,1.62-0.68,5.23-3.89,13.25c0,0-0.16,0.41-0.16,0.41l-0.17,0.29c-0.37,0.65-0.93,1.62-0.93,2.6
	c0,0.34,0.07,0.68,0.23,1c0.24,0.48,0.77,1.09,1.94,1.23l0.32,0.04c1.61,0.19,1.61,0.19,1.75,1.32c0.18,1.46,0.3,2.7,0.3,3.85
	c0,0.85-0.07,1.65-0.21,2.47c-3.66,0.16-5.94,0.62-6.72,1.4l-0.5,1.18c0,2.15,0.91,3.87,2.64,4.97c1.02,0.65,2.36,1.08,3.99,1.33
	c-0.04,0.1-0.09,0.2-0.13,0.29c-2.37,5.52-6.28,9.43-10.81,13.95c-9.43,9.42-22.06,21.15-23.88,53.76
	c-0.09,1.62-0.13,3.25-0.13,4.89c0,12.41,2.59,25.14,5.88,36.45L77.8,180.53L67.02,243h12.17l11.36-39.68l19.09-16l0.01,0.03
	l0.69,0.28c0.64,0.26,1.35,0.48,2.1,0.68c0.33,1.98,0.7,4.06,0.95,5.34c0.18,1,0.65,3.41,9.59,4.02V243h10.02v-45.3
	c9.4-0.56,9.85-3.03,10.03-4.01c0.26-1.3,0.62-3.4,0.96-5.38c0.74-0.21,1.46-0.43,2.09-0.68l0.41-0.18l18.94,15.87L176.82,243h12.17
	L178.2,180.53z"/>
<g>
</g>
<g>
</g>
<g>
</g>
<g>
</g>
<g>
</g>
<g>
</g>
<g>
</g>
<g>
</g>
<g>
</g>
<g>
</g>
<g>
</g>
<g>
</g>
<g>
</g>
<g>
</g>
<g>
</g>
</svg>
