<svg xmlns="http://www.w3.org/2000/svg" viewBox="0 0 256 256"><style>.st0{fill:#666666;}</style><path class="st0" d="M232.88 68.29c-7.1 3.09-14.51 5.09-22.22 6.02 8.33-5.24 14.04-12.5 17.13-21.75-7.72 4.63-16.05 7.87-25 9.72-7.72-8.63-17.12-12.96-28.23-12.96-10.8 0-19.98 3.93-27.54 11.8-7.57 7.87-11.34 17.2-11.34 28 0 3.09.3 6.18.93 9.26-16.05-.93-31.01-5.01-44.9-12.26-13.88-7.25-25.61-17.05-35.17-29.4-3.7 6.18-5.55 12.81-5.55 19.9 0 14.2 5.86 25.15 17.59 32.86-6.48 0-12.5-1.54-18.05-4.63v.46c0 9.57 3.01 17.98 9.03 25.22 6.02 7.25 13.5 11.8 22.45 13.65-3.4.93-6.79 1.39-10.18 1.39-2.47 0-4.94-.3-7.41-.93 2.47 8.03 7.02 14.58 13.65 19.67 6.63 5.09 14.27 7.8 22.91 8.1-14.2 11.11-30.4 16.66-48.6 16.66-3.09 0-6.18-.15-9.26-.46 18.2 12.03 38.11 18.05 59.71 18.05 17.28 0 33.1-3.39 47.44-10.18 14.35-6.78 25.99-15.66 34.94-26.62 8.95-10.95 15.89-23.06 20.83-36.33 4.93-13.26 7.41-26.53 7.41-39.8v-5.09c7.7-5.54 14.18-12.32 19.43-20.35z"/></svg>