<?xml version="1.0" encoding="utf-8"?>
<!-- Generator: Adobe Illustrator 17.1.0, SVG Export Plug-In . SVG Version: 6.00 Build 0)  -->
<!DOCTYPE svg PUBLIC "-//W3C//DTD SVG 1.1//EN" "http://www.w3.org/Graphics/SVG/1.1/DTD/svg11.dtd">
<svg version="1.1" id="Layer_1" xmlns="http://www.w3.org/2000/svg" xmlns:xlink="http://www.w3.org/1999/xlink" x="0px" y="0px"
	 viewBox="0 0 256 256" style="enable-background:new 0 0 256 256;" xml:space="preserve">
<style type="text/css">
	.st0{fill:#666666;}
</style>
<path class="st0" d="M232.88,68.29c-7.1,3.09-14.51,5.09-22.22,6.02c8.33-5.24,14.04-12.5,17.13-21.75
	c-7.72,4.63-16.05,7.87-25,9.72c-7.72-8.63-17.12-12.96-28.23-12.96c-10.8,0-19.98,3.93-27.54,11.8c-7.57,7.87-11.34,17.2-11.34,28
	c0,3.09,0.3,6.18,0.93,9.26c-16.05-0.93-31.01-5.01-44.9-12.26C77.83,78.87,66.1,69.07,56.54,56.72c-3.7,6.18-5.55,12.81-5.55,19.9
	c0,14.2,5.86,25.15,17.59,32.86c-6.48,0-12.5-1.54-18.05-4.63v0.46c0,9.57,3.01,17.98,9.03,25.22c6.02,7.25,13.5,11.8,22.45,13.65
	c-3.4,0.93-6.79,1.39-10.18,1.39c-2.47,0-4.94-0.3-7.41-0.93c2.47,8.03,7.02,14.58,13.65,19.67c6.63,5.09,14.27,7.8,22.91,8.1
	c-14.2,11.11-30.4,16.66-48.6,16.66c-3.09,0-6.18-0.15-9.26-0.46c18.2,12.03,38.11,18.05,59.71,18.05c17.28,0,33.1-3.39,47.44-10.18
	c14.35-6.78,25.99-15.66,34.94-26.62c8.95-10.95,15.89-23.06,20.83-36.33c4.93-13.26,7.41-26.53,7.41-39.8c0-1.85,0-3.54,0-5.09
	C221.15,83.1,227.63,76.32,232.88,68.29z"/>
<g>
</g>
<g>
</g>
<g>
</g>
<g>
</g>
<g>
</g>
<g>
</g>
<g>
</g>
<g>
</g>
<g>
</g>
<g>
</g>
<g>
</g>
<g>
</g>
<g>
</g>
<g>
</g>
<g>
</g>
</svg>
