<svg xmlns="http://www.w3.org/2000/svg" viewBox="0 0 256 256"><style>.st0{fill:#999999;}</style><path class="st0" d="M250.03 75.92s-2.42-17.09-9.86-24.62c-9.43-9.88-20-9.93-24.85-10.51-34.71-2.51-86.76-2.51-86.76-2.51h-.11s-52.06 0-86.76 2.51c-4.85.58-15.42.63-24.85 10.51-7.44 7.53-9.86 24.62-9.86 24.62S4.5 95.99 4.5 116.06v18.82c0 20.07 2.48 40.14 2.48 40.14s2.42 17.09 9.86 24.62c9.43 9.88 21.83 9.57 27.35 10.6 19.84 1.9 84.32 2.49 84.32 2.49s52.11-.08 86.82-2.59c4.85-.58 15.42-.63 24.85-10.51 7.44-7.53 9.86-24.62 9.86-24.62s2.48-20.07 2.48-40.14v-18.82c-.02-20.06-2.49-40.13-2.49-40.13zM102.9 157.68L102.89 88l67.01 34.96-67 34.72z" id="Lozenge"/></svg>